<svg xmlns="http://www.w3.org/2000/svg" viewBox="0 0 48 48"><defs><style>.cls-2{fill:#273941}.cls-5{fill:#f6fafd}</style></defs><g id="_03-smile" data-name="03-smile"><circle cx="24" cy="24" r="23" style="fill:#ffce52"/><path class="cls-2" d="M24 39c-7.168 0-13-4.935-13-11h2c0 4.962 4.935 9 11 9s11-4.038 11-9h2c0 6.065-5.832 11-13 11zM20 21h-2c0-2.206-1.346-4-3-4s-3 1.794-3 4h-2c0-3.309 2.243-6 5-6s5 2.691 5 6zM38 21h-2c0-2.206-1.346-4-3-4s-3 1.794-3 4h-2c0-3.309 2.243-6 5-6s5 2.691 5 6z"/><path d="M24 4c12.15 0 22 8.507 22 19h.975a23 23 0 0 0-45.95 0H2C2 12.507 11.85 4 24 4z" style="fill:#ffe369"/><path d="M46 23c0 10.493-9.85 19-22 19S2 33.493 2 23h-.975c-.014.332-.025.665-.025 1a23 23 0 0 0 46 0c0-.335-.011-.668-.025-1z" style="fill:#ffb32b"/><ellipse class="cls-5" cx="37" cy="9" rx=".825" ry="1.148" transform="rotate(-45.02 37 9)"/><ellipse class="cls-5" cx="30.746" cy="4.5" rx=".413" ry=".574" transform="rotate(-45.02 30.745 4.5)"/><ellipse class="cls-5" cx="34" cy="7" rx="1.65" ry="2.297" transform="rotate(-45.02 34 7)"/></g></svg>