<?xml version="1.0" encoding="UTF-8"?>
<!DOCTYPE svg PUBLIC "-//W3C//DTD SVG 1.1//EN" "http://www.w3.org/Graphics/SVG/1.1/DTD/svg11.dtd">
<!-- Creator: CorelDRAW -->
<svg xmlns="http://www.w3.org/2000/svg" xml:space="preserve" width="2048px" height="2048px" style="shape-rendering:geometricPrecision; text-rendering:geometricPrecision; image-rendering:optimizeQuality; fill-rule:evenodd; clip-rule:evenodd"
viewBox="0 0 2048 2048"
 xmlns:xlink="http://www.w3.org/1999/xlink">
 <defs>
  <style type="text/css">
   <![CDATA[
    .fil1 {fill:none}
    .fil2 {fill:#5D4037}
    .fil0 {fill:#FFD54F}
    .fil3 {fill:white}
   ]]>
  </style>
 </defs>
 <g id="Layer_x0020_1">
  <metadata id="CorelCorpID_0Corel-Layer"/>
  <path class="fil0" d="M1024 255.999c424.155,0 768.001,343.845 768.001,768.001 0,424.155 -343.845,768.001 -768.001,768.001 -424.155,0 -768.001,-343.845 -768.001,-768.001 0,-424.155 343.845,-768.001 768.001,-768.001z"/>
  <g id="_397407576">
   <rect id="_452676848" class="fil1" width="2048" height="2048"/>
   <rect id="_397407528" class="fil1" x="255.999" y="255.999" width="1536" height="1536"/>
  </g>
  <g id="_4764576">
   <path id="_397407432" class="fil2" d="M1024 1103.21l423.677 -0.0011811 30.913 -0.0011811 0 30.7925 0 0.0011811c0,76.8426 -19.0713,149.23 -52.7339,212.695l0 5.62087 -3.03544 0c-20.8488,38.0055 -46.9666,72.7111 -77.38,103.124 -82.2662,82.2662 -195.913,133.149 -321.441,133.149 -125.528,0 -239.175,-50.8831 -321.441,-133.149 -82.2662,-82.2662 -133.149,-195.913 -133.149,-321.441l0 -30.913 30.913 0 423.677 0 0 0.121654z"/>
   <g>
    <path id="_397407264" class="fil2" d="M1261.12 646.38c44.1839,0 80.0008,35.817 80.0008,80.0008 0,44.1839 -35.817,80.0008 -80.0008,80.0008 -44.1839,0 -80.0008,-35.817 -80.0008,-80.0008 0,-44.1839 35.817,-80.0008 80.0008,-80.0008z"/>
    <path id="_397407024" class="fil2" d="M786.884 646.38c44.1839,0 80.0008,35.817 80.0008,80.0008 0,44.1839 -35.817,80.0008 -80.0008,80.0008 -44.1839,0 -80.0008,-35.817 -80.0008,-80.0008 0,-44.1839 35.817,-80.0008 80.0008,-80.0008z"/>
   </g>
   <polygon id="_397406880" class="fil3" points="1152.65,1164.79 1152.65,1290.49 1255.39,1290.49 1255.39,1164.79 "/>
   <polygon id="_397406712" class="fil3" points="988.089,1164.91 988.089,1290.49 1090.82,1290.49 1090.82,1164.79 1024,1164.79 1024,1164.91 "/>
   <polygon id="_452702192" class="fil3" points="823.528,1164.91 823.528,1290.49 926.264,1290.49 926.264,1164.91 "/>
   <path id="_452702024" class="fil3" d="M663.655 1290.49l98.0481 0 0 -125.577 -129.265 0c3.45118,44.3339 14.2665,86.5973 31.2166,125.577z"/>
   <path id="_452701856" class="fil3" d="M761.703 1426.34l0 -74.0256 -64.252 0c14.3232,21.3827 30.6886,41.2807 48.8197,59.413 5.01024,5.00906 10.1599,9.87875 15.4323,14.6126z"/>
   <path id="_452701688" class="fil3" d="M926.264 1514.51l0 -162.19 -102.736 0 0 119.503c31.6477,18.8197 66.1619,33.3213 102.736,42.6874z"/>
   <path id="_452701520" class="fil3" d="M1090.82 1521.09l0 -168.778 -102.736 0 0 172.825c11.8276,1.07244 23.8051,1.62284 35.9114,1.62284 22.7799,0 45.1075,-1.94528 66.8245,-5.6693z"/>
   <path id="_452701352" class="fil3" d="M1255.39 1451.41l0 -99.0922 -102.736 0 0 152.888c37.0796,-12.848 71.6398,-31.0902 102.736,-53.7957z"/>
   <path id="_4764792" class="fil3" d="M1350.55 1352.32l-33.3414 0 0 43.0146c12.0697,-13.5307 23.2181,-27.9 33.3414,-43.0146z"/>
   <path id="_4764648" class="fil3" d="M1317.21 1164.79l0 125.7 67.1351 0c16.9654,-39.0154 27.7866,-81.3225 31.2272,-125.7l-98.3623 0z"/>
  </g>
 </g>
</svg>
